<svg id="Layer_1" data-name="Layer 1" xmlns="http://www.w3.org/2000/svg" width="32" height="32" viewBox="0 0 32 32"><path d="M10,20a1,1,0,1,1-1,1,1,1,0,0,1,1-1m0-1a2,2,0,1,0,2,2,2,2,0,0,0-2-2Z" style="fill:#8ea6ba"/><path d="M22,20a1,1,0,1,1-1,1,1,1,0,0,1,1-1m0-1a2,2,0,1,0,2,2,2,2,0,0,0-2-2Z" style="fill:#8ea6ba"/><path d="M24,15a2,2,0,0,1,2,2v6a1,1,0,0,1-1,1H7a1,1,0,0,1-1-1V17a2,2,0,0,1,2-2H24m0-1H8a3,3,0,0,0-3,3v6a2,2,0,0,0,2,2H25a2,2,0,0,0,2-2V17a3,3,0,0,0-3-3Z" style="fill:#8ea6ba"/><path d="M24,15a2,2,0,0,1,2,2v6a1,1,0,0,1-1,1H7a1,1,0,0,1-1-1V17a2,2,0,0,1,2-2H24m0-1H8a3,3,0,0,0-3,3v6a2,2,0,0,0,2,2H25a2,2,0,0,0,2-2V17a3,3,0,0,0-3-3Z" style="fill:#8ea6ba"/><path d="M23,5a2,2,0,0,1,2,2v7H7V7A2,2,0,0,1,9,5H23m0-1H9A3,3,0,0,0,6,7v8H26V7a3,3,0,0,0-3-3Z" style="fill:#8ea6ba"/><path d="M25,9v5H7V9H25m1-1H6v7H26V8Z" style="fill:#8ea6ba"/><rect x="13" y="6" width="6" height="1" rx="0.5" ry="0.5" style="fill:#8ea6ba"/><rect x="4" y="10" width="1" height="4" rx="0.5" ry="0.5" style="fill:#8ea6ba"/><rect x="27" y="10" width="1" height="4" rx="0.5" ry="0.5" style="fill:#8ea6ba"/><rect x="13.5" y="18" width="1" height="4" rx="0.5" ry="0.5" style="fill:#8ea6ba"/><rect x="15.5" y="18" width="1" height="4" rx="0.5" ry="0.5" style="fill:#8ea6ba"/><rect x="17.5" y="18" width="1" height="4" rx="0.5" ry="0.5" style="fill:#8ea6ba"/><path d="M11,25v1a1,1,0,0,1-1,1H9a1,1,0,0,1-1-1V25h3m1-1H7v2a2,2,0,0,0,2,2h1a2,2,0,0,0,2-2V24Z" style="fill:#8ea6ba"/><path d="M24,25v1a1,1,0,0,1-1,1H22a1,1,0,0,1-1-1V25h3m1-1H20v2a2,2,0,0,0,2,2h1a2,2,0,0,0,2-2V24Z" style="fill:#8ea6ba"/></svg>