<svg id="Layer_1" data-name="Layer 1" xmlns="http://www.w3.org/2000/svg" width="48" height="48" viewBox="0 0 48 48"><path d="M30.22,26.79h5.22V18.39h0A8.8,8.8,0,0,0,26.67,10H21.33a8.8,8.8,0,0,0-8.76,8.39h0v8.39h5.22" style="fill:none;stroke:#8ea6ba;stroke-linecap:round;stroke-linejoin:round;stroke-width:0.75px"/><rect x="11.03" y="28.32" width="25.95" height="6.87" style="fill:none;stroke:#8ea6ba;stroke-linecap:round;stroke-linejoin:round;stroke-width:0.75px"/><polygon points="36.97 28.32 11.03 28.32 12.55 26.79 35.45 26.79 36.97 28.32" style="fill:none;stroke:#8ea6ba;stroke-linecap:round;stroke-linejoin:round;stroke-width:0.75px"/><rect x="10.26" y="19.92" width="2.29" height="5.34" style="fill:none;stroke:#8ea6ba;stroke-linecap:round;stroke-linejoin:round;stroke-width:0.75px"/><rect x="35.45" y="19.92" width="2.29" height="5.34" style="fill:none;stroke:#8ea6ba;stroke-linecap:round;stroke-linejoin:round;stroke-width:0.75px"/><path d="M25,13.05H23c-5.76,0-10.43,1.67-10.43,7.43v6.3H35.45v-6.3C35.45,14.72,30.78,13.05,25,13.05Z" style="fill:none;stroke:#8ea6ba;stroke-linecap:round;stroke-linejoin:round;stroke-width:0.75px"/><rect x="12.55" y="18.39" width="22.89" height="8.39" style="fill:none;stroke:#8ea6ba;stroke-linecap:round;stroke-linejoin:round;stroke-width:0.75px"/><path d="M12.55,35.18h4.58a0,0,0,0,1,0,0v1.53A2.29,2.29,0,0,1,14.84,39h0a2.29,2.29,0,0,1-2.29-2.29V35.18A0,0,0,0,1,12.55,35.18Z" style="fill:none;stroke:#8ea6ba;stroke-linecap:round;stroke-linejoin:round;stroke-width:0.75px"/><path d="M30.87,35.18h4.58a0,0,0,0,1,0,0v1.53A2.29,2.29,0,0,1,33.16,39h0a2.29,2.29,0,0,1-2.29-2.29V35.18a0,0,0,0,1,0,0Z" style="fill:none;stroke:#8ea6ba;stroke-linecap:round;stroke-linejoin:round;stroke-width:0.75px"/><line x1="21.71" y1="15.34" x2="27.05" y2="15.34" style="fill:none;stroke:#8ea6ba;stroke-linecap:round;stroke-linejoin:round;stroke-width:0.75px"/><line x1="28.96" y1="30.61" x2="19.04" y2="30.61" style="fill:none;stroke:#8ea6ba;stroke-linecap:round;stroke-linejoin:round;stroke-width:0.75px"/><line x1="28.2" y1="32.89" x2="19.8" y2="32.89" style="fill:none;stroke:#8ea6ba;stroke-linecap:round;stroke-linejoin:round;stroke-width:0.75px"/><circle cx="15.22" cy="31.75" r="1.91" style="fill:none;stroke:#8ea6ba;stroke-linecap:round;stroke-linejoin:round;stroke-width:0.75px"/><circle cx="32.78" cy="31.75" r="1.91" style="fill:none;stroke:#8ea6ba;stroke-linecap:round;stroke-linejoin:round;stroke-width:0.75px"/><line x1="18.66" y1="26.79" x2="20.88" y2="24.18" style="fill:none;stroke:#8ea6ba;stroke-linecap:round;stroke-linejoin:round;stroke-width:0.75px"/><line x1="30.11" y1="26.79" x2="32.33" y2="24.18" style="fill:none;stroke:#8ea6ba;stroke-linecap:round;stroke-linejoin:round;stroke-width:0.75px"/><line x1="24" y1="26.79" x2="24" y2="18.39" style="fill:none;stroke:#8ea6ba;stroke-linecap:round;stroke-linejoin:round;stroke-width:0.75px"/><path d="M26.67,10a8.8,8.8,0,0,1,8.76,8.39h0v1.53h2.29v5.34H35.45v1.53L37,28.32v6.87H35.45v1.53a2.29,2.29,0,0,1-4.58,0V35.18H17.13v1.53a2.29,2.29,0,0,1-4.58,0V35.18H11V28.32l1.53-1.53V25.26H10.26V19.92h2.29V18.39h0A8.8,8.8,0,0,1,21.33,10h5.34m0-1.5H21.33a10.25,10.25,0,0,0-10.24,9.58,1.47,1.47,0,0,0,0,.32v0h-.79a1.5,1.5,0,0,0-1.5,1.5v5.34a1.5,1.5,0,0,0,1.5,1.5h.19l-.49.49a1.5,1.5,0,0,0-.44,1.06v6.87a1.5,1.5,0,0,0,1.5,1.5h0v0a3.79,3.79,0,0,0,7.58,0v0H29.37v0a3.79,3.79,0,0,0,7.58,0v0h0a1.5,1.5,0,0,0,1.5-1.5V28.32A1.5,1.5,0,0,0,38,27.26l-.49-.49h.19a1.5,1.5,0,0,0,1.5-1.5V19.92a1.5,1.5,0,0,0-1.5-1.5h-.79v0a1.51,1.51,0,0,0,0-.33A10.25,10.25,0,0,0,26.67,8.5Z" style="fill:#8ea6ba"/></svg>