<svg id="Layer_1" data-name="Layer 1" xmlns="http://www.w3.org/2000/svg" width="32" height="32" viewBox="0 0 32 32"><path d="M23,15a2,2,0,0,1,2,2v4a1,1,0,0,1-1,1H8a1,1,0,0,1-1-1V17a2,2,0,0,1,2-2H23m0-1H9a3,3,0,0,0-3,3v4a2,2,0,0,0,2,2H24a2,2,0,0,0,2-2V17a3,3,0,0,0-3-3Z" style="fill:#8ea6ba"/><path d="M19,7a4,4,0,0,1,4,4v3H9V11a4,4,0,0,1,4-4h6m0-1H13a5,5,0,0,0-5,5v4H24V11a5,5,0,0,0-5-5Z" style="fill:#8ea6ba"/><path d="M10,18a1,1,0,1,1-1,1,1,1,0,0,1,1-1m0-1a2,2,0,1,0,2,2,2,2,0,0,0-2-2Z" style="fill:#8ea6ba"/><path d="M22,18a1,1,0,1,1-1,1,1,1,0,0,1,1-1m0-1a2,2,0,1,0,2,2,2,2,0,0,0-2-2Z" style="fill:#8ea6ba"/><path d="M12,23v1a1,1,0,0,1-1,1H10a1,1,0,0,1-1-1V23h3m1-1H8v2a2,2,0,0,0,2,2h1a2,2,0,0,0,2-2V22Z" style="fill:#8ea6ba"/><path d="M23,23v1a1,1,0,0,1-1,1H21a1,1,0,0,1-1-1V23h3m1-1H19v2a2,2,0,0,0,2,2h1a2,2,0,0,0,2-2V22Z" style="fill:#8ea6ba"/><rect x="14" y="20" width="4" height="1" rx="0.5" ry="0.5" style="fill:#8ea6ba"/><path d="M18.38,9A2.62,2.62,0,0,1,21,11.62V14a0,0,0,0,1,0,0H11a0,0,0,0,1,0,0V11.62A2.62,2.62,0,0,1,13.62,9h4.76m0-1H13.62A3.62,3.62,0,0,0,10,11.62V14a1,1,0,0,0,1,1H21a1,1,0,0,0,1-1V11.62A3.62,3.62,0,0,0,18.38,8Z" style="fill:#8ea6ba"/><rect x="4" y="13" width="2.5" height="1" rx="0.5" ry="0.5" style="fill:#8ea6ba"/><rect x="25.5" y="13" width="2.5" height="1" rx="0.5" ry="0.5" style="fill:#8ea6ba"/></svg>