<svg id="Layer_1" data-name="Layer 1" xmlns="http://www.w3.org/2000/svg" width="48" height="48" viewBox="0 0 48 48"><title>app_icons</title><path d="M23,8.76A17.48,17.48,0,1,1,9,22" style="fill:none;stroke:#8ea6ba;stroke-linecap:round;stroke-linejoin:round;stroke-width:2px"/><circle cx="11.5" cy="11.5" r="7" style="fill:none;stroke:#8ea6ba;stroke-linecap:round;stroke-linejoin:round;stroke-width:2px"/><line x1="9.5" y1="13.5" x2="13.5" y2="9.5" style="fill:none;stroke:#8ea6ba;stroke-linecap:round;stroke-linejoin:round;stroke-width:2px"/><line x1="9.5" y1="9.5" x2="13.5" y2="13.5" style="fill:none;stroke:#8ea6ba;stroke-linecap:round;stroke-linejoin:round;stroke-width:2px"/><rect x="19.5" y="16.5" width="13" height="15" rx="5.26" ry="5.26" style="fill:none;stroke:#8ea6ba;stroke-linecap:round;stroke-linejoin:round"/><line x1="9.5" y1="13.5" x2="13.5" y2="9.5" style="fill:none;stroke:#8ea6ba;stroke-linecap:round;stroke-linejoin:round;stroke-width:2px"/><line x1="9.5" y1="13.5" x2="13.5" y2="9.5" style="fill:none;stroke:#8ea6ba;stroke-linecap:round;stroke-linejoin:round;stroke-width:2px"/><line x1="9.5" y1="13.5" x2="13.5" y2="9.5" style="fill:none;stroke:#8ea6ba;stroke-linecap:round;stroke-linejoin:round;stroke-width:2px"/><line x1="9.5" y1="13.5" x2="13.5" y2="9.5" style="fill:none;stroke:#8ea6ba;stroke-linecap:round;stroke-linejoin:round;stroke-width:2px"/><path d="M31,32.5h-.59a3.49,3.49,0,0,1-3.45,3H25a3.49,3.49,0,0,1-3.45-3H21a5.45,5.45,0,0,0-1.45.2,4.86,4.86,0,0,0,4.86,4.8h3.27a4.86,4.86,0,0,0,4.86-4.8A5.45,5.45,0,0,0,31,32.5Z" style="fill:none;stroke:#8ea6ba;stroke-linecap:round;stroke-linejoin:round"/><path d="M27.24,31.5H24.76a5.22,5.22,0,0,1-3.26-1.16V32A3.5,3.5,0,0,0,25,35.5h2A3.5,3.5,0,0,0,30.5,32V30.34A5.22,5.22,0,0,1,27.24,31.5Z" style="fill:none;stroke:#8ea6ba;stroke-linecap:round;stroke-linejoin:round"/><path d="M27.24,16.5H24.76a5.26,5.26,0,0,0-5.26,5.26V25a10,10,0,0,0,4.19-2.73A14.52,14.52,0,0,0,31.5,24.5c.34,0,.67,0,1,0V21.76A5.26,5.26,0,0,0,27.24,16.5Z" style="fill:none;stroke:#8ea6ba;stroke-linecap:round;stroke-linejoin:round"/><path d="M31,32.5h-.59a3.49,3.49,0,0,1-3.45,3H25a3.49,3.49,0,0,1-3.45-3H21A5.46,5.46,0,0,0,15.5,38v2a17.41,17.41,0,0,0,21,0V38A5.46,5.46,0,0,0,31,32.5Z" style="fill:none;stroke:#8ea6ba;stroke-linecap:round;stroke-linejoin:round"/><path d="M31,32.5h-.59a3.47,3.47,0,0,0,.05-.5V30.34h0a5.23,5.23,0,0,0,2-4.1V21.76a5.26,5.26,0,0,0-5.26-5.26H24.76a5.26,5.26,0,0,0-5.26,5.26v4.47a5.23,5.23,0,0,0,2,4.1h0V32a3.47,3.47,0,0,0,.05.5H21A5.46,5.46,0,0,0,15.5,38v2a17.41,17.41,0,0,0,21,0V38A5.46,5.46,0,0,0,31,32.5Z" style="fill:none;stroke:#8ea6ba;stroke-linecap:round;stroke-linejoin:round"/><path d="M27.24,16.5a5.26,5.26,0,0,1,5.26,5.26v4.47a5.23,5.23,0,0,1-2,4.1h0V32a3.47,3.47,0,0,1-.05.5H31A5.46,5.46,0,0,1,36.5,38v2a17.41,17.41,0,0,1-21,0V38A5.46,5.46,0,0,1,21,32.5h.59a3.47,3.47,0,0,1-.05-.5V30.34h0a5.23,5.23,0,0,1-2-4.1V21.76a5.26,5.26,0,0,1,5.26-5.26h2.47m0-1H24.76a6.27,6.27,0,0,0-6.26,6.26v4.47a6.21,6.21,0,0,0,2,4.56v.72a6.46,6.46,0,0,0-6,6.44v2a1,1,0,0,0,.4.8,18.41,18.41,0,0,0,22.2,0,1,1,0,0,0,.4-.8V38a6.46,6.46,0,0,0-6-6.44v-.72a6.21,6.21,0,0,0,2-4.56V21.76a6.27,6.27,0,0,0-6.26-6.26Z" style="fill:#8ea6ba"/></svg>