<svg id="Layer_1" data-name="Layer 1" xmlns="http://www.w3.org/2000/svg" width="48" height="48" viewBox="0 0 48 48"><title>app_icons</title><path d="M26.41,31.5h-.82a6.05,6.05,0,0,1-3.09-.85V33a3.5,3.5,0,0,0,7,0V30.65A6.05,6.05,0,0,1,26.41,31.5Z" style="fill:none;stroke:#8ea6ba;stroke-linecap:round;stroke-linejoin:round"/><path d="M23,8.76A17.48,17.48,0,1,1,9,22" style="fill:none;stroke:#8ea6ba;stroke-linecap:round;stroke-linejoin:round;stroke-width:2px"/><rect x="19.5" y="15.5" width="13" height="16" rx="6.09" ry="6.09" style="fill:none;stroke:#8ea6ba;stroke-linecap:round;stroke-linejoin:round"/><path d="M29.5,32.54V33a3.5,3.5,0,0,1-7,0v-.46a6.7,6.7,0,0,0-2,.54,5.5,5.5,0,0,0,11,0A6.7,6.7,0,0,0,29.5,32.54Z" style="fill:none;stroke:#8ea6ba;stroke-linecap:round;stroke-linejoin:round"/><path d="M29.5,32.54V33a3.5,3.5,0,0,1-7,0v-.46a6.71,6.71,0,0,0-6,6.68v1.47a17.43,17.43,0,0,0,19,0V39.21A6.71,6.71,0,0,0,29.5,32.54Z" style="fill:none;stroke:#8ea6ba;stroke-linecap:round;stroke-linejoin:round"/><path d="M26.41,15.5h-.82a6.09,6.09,0,0,0-6.09,6.09v1.35a8.48,8.48,0,0,0,5.39-2.85,12.52,12.52,0,0,0,7.6,5.53c0-.07,0-.14,0-.21V21.59A6.09,6.09,0,0,0,26.41,15.5Z" style="fill:none;stroke:#8ea6ba;stroke-linecap:round;stroke-linejoin:round"/><path d="M25.59,15.5h.82a6.08,6.08,0,0,1,1.57.21A1.46,1.46,0,0,0,26.5,14h-1A1.46,1.46,0,0,0,24,15.71,6.08,6.08,0,0,1,25.59,15.5Z" style="fill:none;stroke:#8ea6ba;stroke-linecap:round;stroke-linejoin:round"/><path d="M26.5,14A1.46,1.46,0,0,1,28,15.71h0a6.09,6.09,0,0,1,4.52,5.88v3.82a6.08,6.08,0,0,1-3,5.24h0v1.89a6.71,6.71,0,0,1,6,6.68v1.47a17.43,17.43,0,0,1-19,0V39.21a6.71,6.71,0,0,1,6-6.68V30.65h0a6.08,6.08,0,0,1-3-5.24V21.59A6.09,6.09,0,0,1,24,15.71h0A1.46,1.46,0,0,1,25.5,14h1m0-1h-1a2.5,2.5,0,0,0-2.44,2,7.1,7.1,0,0,0-4.56,6.62v3.82a7.12,7.12,0,0,0,3,5.78v.5a7.69,7.69,0,0,0-6,7.52v1.47a1,1,0,0,0,.46.84,18.43,18.43,0,0,0,20.09,0,1,1,0,0,0,.46-.84V39.21a7.69,7.69,0,0,0-6-7.52v-.5a7.12,7.12,0,0,0,3-5.78V21.59A7.1,7.1,0,0,0,28.94,15a2.5,2.5,0,0,0-2.44-2Z" style="fill:#8ea6ba"/><circle cx="11.5" cy="11.5" r="7" style="fill:none;stroke:#8ea6ba;stroke-linecap:round;stroke-linejoin:round;stroke-width:2px"/><line x1="15.5" y1="11.5" x2="16.5" y2="11.5" style="fill:none;stroke:#8ea6ba;stroke-linecap:round;stroke-linejoin:round"/><line x1="11.5" y1="6.5" x2="11.5" y2="7.5" style="fill:none;stroke:#8ea6ba;stroke-linecap:round;stroke-linejoin:round"/><line x1="6.5" y1="11.5" x2="7.5" y2="11.5" style="fill:none;stroke:#8ea6ba;stroke-linecap:round;stroke-linejoin:round"/><line x1="11.5" y1="16.5" x2="11.5" y2="15.5" style="fill:none;stroke:#8ea6ba;stroke-linecap:round;stroke-linejoin:round"/><line x1="11.5" y1="11.5" x2="13.5" y2="9.5" style="fill:none;stroke:#8ea6ba;stroke-linecap:round;stroke-linejoin:round;stroke-width:2px"/></svg>