<svg id="Layer_1" data-name="Layer 1" xmlns="http://www.w3.org/2000/svg" width="48" height="48" viewBox="0 0 48 48"><path d="M19.07,9.73H15.4a8.8,8.8,0,0,0-8.76,8.39h0v8.39h5.22" style="fill:none;stroke:#8ea6ba;stroke-linecap:round;stroke-linejoin:round;stroke-width:0.75px"/><rect x="5.1" y="28.04" width="13.97" height="6.87" style="fill:none;stroke:#8ea6ba;stroke-linecap:round;stroke-linejoin:round;stroke-width:0.75px"/><polygon points="19.07 28.04 5.1 28.04 6.62 26.52 19.07 26.52 19.07 28.04" style="fill:none;stroke:#8ea6ba;stroke-linecap:round;stroke-linejoin:round;stroke-width:0.75px"/><rect x="4.33" y="19.65" width="2.29" height="5.34" style="fill:none;stroke:#8ea6ba;stroke-linecap:round;stroke-linejoin:round;stroke-width:0.75px"/><path d="M19.08,12.78h-2c-5.76,0-10.43,1.67-10.43,7.43v6.3H19.07" style="fill:none;stroke:#8ea6ba;stroke-linecap:round;stroke-linejoin:round;stroke-width:0.75px"/><rect x="6.62" y="18.12" width="12.45" height="8.39" style="fill:none;stroke:#8ea6ba;stroke-linecap:round;stroke-linejoin:round;stroke-width:0.75px"/><path d="M6.62,34.91H11.2a0,0,0,0,1,0,0v1.53a2.29,2.29,0,0,1-2.29,2.29h0a2.29,2.29,0,0,1-2.29-2.29V34.91a0,0,0,0,1,0,0Z" style="fill:none;stroke:#8ea6ba;stroke-linecap:round;stroke-linejoin:round;stroke-width:0.75px"/><line x1="15.78" y1="15.07" x2="19.07" y2="15.07" style="fill:none;stroke:#8ea6ba;stroke-linecap:round;stroke-linejoin:round;stroke-width:0.75px"/><line x1="19.07" y1="30.33" x2="13.11" y2="30.33" style="fill:none;stroke:#8ea6ba;stroke-linecap:round;stroke-linejoin:round;stroke-width:0.75px"/><line x1="19.07" y1="32.62" x2="13.87" y2="32.62" style="fill:none;stroke:#8ea6ba;stroke-linecap:round;stroke-linejoin:round;stroke-width:0.75px"/><circle cx="9.29" cy="31.48" r="1.91" style="fill:none;stroke:#8ea6ba;stroke-linecap:round;stroke-linejoin:round;stroke-width:0.75px"/><line x1="12.73" y1="26.52" x2="14.95" y2="23.91" style="fill:none;stroke:#8ea6ba;stroke-linecap:round;stroke-linejoin:round;stroke-width:0.75px"/><path d="M18.07,9.73V34.91H11.2v1.53a2.29,2.29,0,0,1-4.58,0V34.91H5.1V28l1.53-1.53V25H4.33V19.65H6.62V18.12h0A8.8,8.8,0,0,1,15.4,9.73h2.67m0-1.5H15.4A10.25,10.25,0,0,0,5.16,17.8a1.47,1.47,0,0,0,0,.32v0H4.33a1.5,1.5,0,0,0-1.5,1.5V25a1.5,1.5,0,0,0,1.5,1.5h.19L4,27A1.5,1.5,0,0,0,3.6,28v6.87a1.5,1.5,0,0,0,1.5,1.5h0v0a3.79,3.79,0,0,0,7.58,0v0h5.37a1.5,1.5,0,0,0,1.5-1.5V9.73a1.5,1.5,0,0,0-1.5-1.5Z" style="fill:#8ea6ba"/><path d="M31.08,25.92h7.57a5.43,5.43,0,0,1,5.43,5.43v2a1.55,1.55,0,0,1-1.55,1.55H31.08a0,0,0,0,1,0,0v-9A0,0,0,0,1,31.08,25.92Z" style="fill:none;stroke:#8ea6ba;stroke-linecap:round;stroke-linejoin:round;stroke-width:0.75px"/><circle cx="39.58" cy="31.42" r="1.5" style="fill:none;stroke:#8ea6ba;stroke-linecap:round;stroke-linejoin:round;stroke-width:0.75px"/><line x1="31.08" y1="32.92" x2="35.08" y2="32.92" style="fill:none;stroke:#8ea6ba;stroke-linecap:round;stroke-linejoin:round;stroke-width:0.75px"/><line x1="31.08" y1="30.92" x2="35.08" y2="30.92" style="fill:none;stroke:#8ea6ba;stroke-linecap:round;stroke-linejoin:round;stroke-width:0.75px"/><path d="M31.08,25.92v-10h.55a9.45,9.45,0,0,1,9.45,9.45v1.12" style="fill:none;stroke:#8ea6ba;stroke-linecap:round;stroke-linejoin:round;stroke-width:0.75px"/><path d="M31.08,18c5,0,7.71,3.64,7.89,7.89" style="fill:none;stroke:#8ea6ba;stroke-linecap:round;stroke-linejoin:round;stroke-width:0.75px"/><path d="M36.5,35.35h4.58a0,0,0,0,1,0,0v1.53a2.29,2.29,0,0,1-2.29,2.29h0a2.29,2.29,0,0,1-2.29-2.29V35.35A0,0,0,0,1,36.5,35.35Z" style="fill:none;stroke:#8ea6ba;stroke-linecap:round;stroke-linejoin:round;stroke-width:0.75px"/><path d="M31.63,15.92a9.45,9.45,0,0,1,9.45,9.45v1.12h0a5.42,5.42,0,0,1,3,4.86v2a1.55,1.55,0,0,1-1.55,1.55H41.08v2a2.29,2.29,0,1,1-4.58,0v-2H31.08v-19h.55m0-1.25h-.55a1.25,1.25,0,0,0-1.25,1.25v19a1.25,1.25,0,0,0,1.25,1.25h4.17v.71a3.54,3.54,0,1,0,7.08,0v-.71h.2a2.8,2.8,0,0,0,2.8-2.8v-2a6.63,6.63,0,0,0-3-5.57v-.41a10.71,10.71,0,0,0-10.7-10.7Z" style="fill:#8ea6ba"/><line x1="22.17" y1="25.71" x2="27.04" y2="25.71" style="fill:none;stroke:#8ea6ba;stroke-linecap:round;stroke-linejoin:round;stroke-width:1.25px"/><line x1="25.08" y1="23.73" x2="27.08" y2="25.73" style="fill:none;stroke:#8ea6ba;stroke-linecap:round;stroke-linejoin:round;stroke-width:1.25px"/><line x1="25.08" y1="27.73" x2="27.08" y2="25.73" style="fill:none;stroke:#8ea6ba;stroke-linecap:round;stroke-linejoin:round;stroke-width:1.25px"/></svg>