<svg id="Layer_1" data-name="Layer 1" xmlns="http://www.w3.org/2000/svg" width="64" height="64" viewBox="0 0 64 64"><title>app_icons</title><circle cx="22.5" cy="35.5" r="3" style="fill:none;stroke:#8ea6ba;stroke-linecap:round;stroke-linejoin:round"/><circle cx="41.5" cy="35.5" r="3" style="fill:none;stroke:#8ea6ba;stroke-linecap:round;stroke-linejoin:round"/><path d="M34.5,36.5h4.18A2.77,2.77,0,0,1,39,33.88,3,3,0,0,1,44.5,35.5a3,3,0,0,1-.18,1h.18s3,0,3-2v-3a2,2,0,0,0-2-2h-1c-3,0-3-4-10-4s-7,2-10,3c-2.7.9-7.85,1-8.83,5.4a2.07,2.07,0,0,0,1.49,2.44,5.38,5.38,0,0,0,1.35.16h1.18A2.77,2.77,0,0,1,20,33.88,3,3,0,0,1,25.5,35.5a3,3,0,0,1-.18,1H28.5" style="fill:none;stroke:#8ea6ba;stroke-linecap:round;stroke-linejoin:round"/><polyline points="31.5 39.5 31.5 32 29.5 34" style="fill:none;stroke:#3fa9f5;stroke-linecap:round;stroke-linejoin:round"/><line x1="33.5" y1="34" x2="31.5" y2="32" style="fill:none;stroke:#3fa9f5;stroke-linecap:round;stroke-linejoin:round"/></svg>