<svg id="Layer_1" data-name="Layer 1" xmlns="http://www.w3.org/2000/svg" width="64" height="64" viewBox="0 0 64 64"><title>app_icons</title><path d="M41.14,38l1.57-3.78L40.64,33a8.64,8.64,0,0,0,0-2l2.07-1.23L41.15,26l-2.33.6a8.64,8.64,0,0,0-1.41-1.4l.6-2.34-3.78-1.57L33,23.36a8.64,8.64,0,0,0-2,0l-1.23-2.07L26,22.85l.6,2.33a8.64,8.64,0,0,0-1.4,1.41L22.86,26l-1.57,3.78L23.36,31a8.64,8.64,0,0,0,0,2l-2.07,1.23L22.85,38l2.33-.6a8.64,8.64,0,0,0,1.41,1.4L26,41.14l3.78,1.57L31,40.64a8.64,8.64,0,0,0,2,0l1.23,2.07L38,41.15l-.6-2.33a8.64,8.64,0,0,0,1.4-1.41Z" style="fill:none;stroke:currentColor;stroke-linecap:round;stroke-linejoin:round"/><circle cx="32" cy="32" r="2.5" style="fill:none;stroke:currentColor;stroke-miterlimit:10"/></svg>
