<svg id="Layer_1" data-name="Layer 1" xmlns="http://www.w3.org/2000/svg" width="48" height="48" viewBox="0 0 48 48"><path d="M18.24,8.15A17.33,17.33,0,1,1,7.29,19.83" style="fill:none;stroke:#8ea6ba;stroke-linecap:round;stroke-linejoin:round;stroke-width:1.5px"/><path d="M23.81,12h.38A6.81,6.81,0,0,1,31,18.83V23a6,6,0,0,1-6,6H23a6,6,0,0,1-6-6V18.83A6.81,6.81,0,0,1,23.81,12Z" style="fill:none;stroke:#8ea6ba;stroke-linecap:round;stroke-linejoin:round;stroke-width:0.75px"/><path d="M24,41a16.44,16.44,0,0,0,11.49-4.67A6.5,6.5,0,0,0,29,30h-.5v.5a4.5,4.5,0,1,1-9,0V30H19a6.5,6.5,0,0,0-6.49,6.33A16.44,16.44,0,0,0,24,41Z" style="fill:none;stroke:#8ea6ba;stroke-linecap:round;stroke-linejoin:round;stroke-width:0.75px"/><path d="M24.19,12h-.38A6.81,6.81,0,0,0,17,18.83v1.42A10.23,10.23,0,0,1,21,17s1.56,1.38,10,1.85v0A6.81,6.81,0,0,0,24.19,12Z" style="fill:none;stroke:#8ea6ba;stroke-linecap:round;stroke-linejoin:round;stroke-width:0.75px"/><path d="M25,29H23A5.94,5.94,0,0,1,19.5,27.9v2.62a4.5,4.5,0,1,0,9,0V27.9A5.94,5.94,0,0,1,25,29Z" style="fill:none;stroke:#8ea6ba;stroke-linecap:round;stroke-linejoin:round;stroke-width:0.75px"/><path d="M30.5,30.52V30.2A6.49,6.49,0,0,0,29,30h-.5v.5a4.5,4.5,0,1,1-9,0V30H19a6.49,6.49,0,0,0-1.5.18v.32a6.5,6.5,0,0,0,13,0Z" style="fill:none;stroke:#8ea6ba;stroke-linecap:round;stroke-linejoin:round;stroke-width:0.75px"/><path d="M24.19,12A6.81,6.81,0,0,1,31,18.83V23a6,6,0,0,1-2.5,4.85h0V30H29a6.54,6.54,0,0,1,.75,0h.05a6.49,6.49,0,0,1,5.69,6.27,16.47,16.47,0,0,1-23,0,6.49,6.49,0,0,1,5.69-6.27h.05A6.54,6.54,0,0,1,19,30h.5V27.9h0A6,6,0,0,1,17,23V18.83A6.81,6.81,0,0,1,23.81,12h.38m3.53,16.35h0m-7.43,0h0m6.62.34h0m-5.77,0h0m4.81.22h0l.11,0-.11,0m-3.88,0h0l-.11,0,.11,0m2.13-18.17h-.38a8.07,8.07,0,0,0-8.06,8.06V23a7.24,7.24,0,0,0,2.5,5.46v.31l-.14,0H18a7.78,7.78,0,0,0-6.76,7.48,1.25,1.25,0,0,0,.38.93,17.72,17.72,0,0,0,24.72,0,1.25,1.25,0,0,0,.38-.93A7.79,7.79,0,0,0,30,28.84H29.9l-.15,0v-.31A7.24,7.24,0,0,0,32.25,23V18.87a8.08,8.08,0,0,0-8.06-8.1Z" style="fill:#8ea6ba"/><circle cx="9.63" cy="10.9" r="6.29" style="fill:none;stroke:#8ea6ba;stroke-linecap:round;stroke-linejoin:round;stroke-width:1.5px"/><line x1="7.13" y1="8.4" x2="12.13" y2="13.4" style="fill:none;stroke:#8ea6ba;stroke-linecap:round;stroke-linejoin:round;stroke-width:1.5px"/><line x1="7.12" y1="13.4" x2="12.13" y2="8.4" style="fill:none;stroke:#8ea6ba;stroke-linecap:round;stroke-linejoin:round;stroke-width:1.5px"/></svg>