<svg id="Layer_1" data-name="Layer 1" xmlns="http://www.w3.org/2000/svg" width="32" height="32" viewBox="0 0 32 32"><path d="M16,10a1,1,0,0,1,.71.29l5,5A1,1,0,0,1,22,16v2a1,1,0,0,0,1,1h3a1,1,0,0,1,1,1v5a1,1,0,0,1-1,1H6a1,1,0,0,1-1-1V20a1,1,0,0,1,1-1H9a1,1,0,0,0,1-1V16a1,1,0,0,1,.29-.71l5-5A1,1,0,0,1,16,10m0-1a2,2,0,0,0-1.41.59l-5,5A2,2,0,0,0,9,16v2H6a2,2,0,0,0-2,2v5a2,2,0,0,0,2,2H26a2,2,0,0,0,2-2V20a2,2,0,0,0-2-2H23V16a2,2,0,0,0-.59-1.41l-5-5A2,2,0,0,0,16,9Z" style="fill:#8ea6ba"/><path d="M17,22a1,1,0,0,1,1,1v3H14V23a1,1,0,0,1,1-1h2m0-1H15a2,2,0,0,0-2,2v4h6V23a2,2,0,0,0-2-2Z" style="fill:#8ea6ba"/><path d="M9,22a1,1,0,1,1-1,1,1,1,0,0,1,1-1m0-1a2,2,0,1,0,2,2,2,2,0,0,0-2-2Z" style="fill:#8ea6ba"/><path d="M23,22a1,1,0,1,1-1,1,1,1,0,0,1,1-1m0-1a2,2,0,1,0,2,2,2,2,0,0,0-2-2Z" style="fill:#8ea6ba"/><path d="M17,16a1,1,0,0,1,0,2H15a1,1,0,0,1,0-2h2m0-1H15a2,2,0,0,0,0,4h2a2,2,0,0,0,0-4Z" style="fill:#8ea6ba"/><line x1="16" y1="4" x2="16" y2="9.39" style="fill:none;stroke:#8ea6ba;stroke-linecap:round;stroke-linejoin:round"/><polyline points="16.23 4.91 22.44 6.29 16.23 7.66" style="fill:none;stroke:#8ea6ba;stroke-linecap:round;stroke-linejoin:round"/></svg>