<svg id="Layer_1" data-name="Layer 1" xmlns="http://www.w3.org/2000/svg" xmlns:xlink="http://www.w3.org/1999/xlink" width="48" height="48" viewBox="0 0 48 48"><defs><clipPath id="clip-path"><circle cx="14.75" cy="19.25" r="8.25" style="fill:none"/></clipPath><clipPath id="clip-path-2"><path d="M34.5,7.5H32.28a.94.94,0,0,0-.67,1.61L32,9.5v4l-5.25,8.85a3.5,3.5,0,0,0,3.09,5.15h8.82a3.5,3.5,0,0,0,3.09-5.15L36.5,13.5v-4l.39-.39a.94.94,0,0,0-.67-1.61H34" style="fill:none"/></clipPath></defs><title>app_icons</title><path d="M29.84,28a4,4,0,0,1-3.53-5.89l5.19-8.75V9.71l-.24-.24a1.44,1.44,0,0,1,1-2.46h3.95a1.44,1.44,0,0,1,1,2.46L37,9.71v3.66l5.18,8.73A4,4,0,0,1,38.66,28Z" style="fill:#fff"/><path d="M36.22,7.5a.94.94,0,0,1,.67,1.61l-.39.39v4l5.25,8.85a3.5,3.5,0,0,1-3.09,5.15H29.84a3.5,3.5,0,0,1-3.09-5.15L32,13.5v-4l-.39-.39a.94.94,0,0,1,.67-1.61h3.95m0-1H32.28A1.94,1.94,0,0,0,30.9,9.82l.1.1v3.31l-5.11,8.61a4.5,4.5,0,0,0,4,6.66h8.82a4.5,4.5,0,0,0,4-6.62L37.5,13.23V9.91l.1-.1A1.94,1.94,0,0,0,36.22,6.5Z" style="fill:#607a8c"/><circle cx="14.75" cy="19.25" r="8.75" style="fill:#fff"/><path d="M14.75,11A8.25,8.25,0,1,1,6.5,19.25,8.25,8.25,0,0,1,14.75,11m0-1A9.25,9.25,0,1,0,24,19.25,9.26,9.26,0,0,0,14.75,10Z" style="fill:#607a8c"/><path d="M10.5,39a.5.5,0,0,1-.22-.05l-6-3a.5.5,0,0,1,0-.89l6-3A.5.5,0,0,1,10.5,32h33a.5.5,0,0,1,.5.5v6a.5.5,0,0,1-.5.5Z" style="fill:#fff"/><path d="M43.5,32.5v6h-33l-6-3,6-3h33m0-1h-33a1,1,0,0,0-.45.11l-6,3a1,1,0,0,0,0,1.79l6,3a1,1,0,0,0,.45.11h33a1,1,0,0,0,1-1v-6a1,1,0,0,0-1-1Z" style="fill:#607a8c"/><rect x="38.5" y="32.5" width="5" height="6" style="fill:currentColor"/><path d="M41.75,22.35l-3.09-5.2c-1,.31-1.67-.15-3.17,1.35-2.16,2.16-5.44,2.17-7.89,2.4l-.86,1.45a3.5,3.5,0,0,0,3.09,5.15h8.82A3.5,3.5,0,0,0,41.75,22.35Z" style="fill:currentColor"/><g style="clip-path:url(#clip-path)"><path d="M14.32,10.57a8.25,8.25,0,0,1-8.25,8.25c-4.56,0-8.25.31-8.25-4.25S1.51,4.32,6.07,4.32,14.32,6,14.32,10.57Z" style="fill:none;stroke:currentColor;stroke-linecap:round;stroke-linejoin:round;stroke-dasharray:2.075666666030884,2.075666666030884"/><circle cx="22.57" cy="27.93" r="8.25" style="fill:none;stroke:currentColor;stroke-linecap:round;stroke-linejoin:round;stroke-dasharray:1.9926239252090454,1.9926239252090454"/></g><circle cx="14.75" cy="19.25" r="8.25" style="fill:none;stroke:#607a8c;stroke-miterlimit:10"/><path d="M34.5,7.5H32.28a.94.94,0,0,0-.67,1.61L32,9.5v4l-5.25,8.85a3.5,3.5,0,0,0,3.09,5.15h8.82a3.5,3.5,0,0,0,3.09-5.15L36.5,13.5v-4l.39-.39a.94.94,0,0,0-.67-1.61H34" style="fill:none;stroke:#607a8c;stroke-linecap:round;stroke-linejoin:round"/><circle cx="34.5" cy="24.5" r="1.5" style="fill:#fff"/><circle cx="37" cy="20" r="1" style="fill:#fff"/><circle cx="39" cy="23" r="1" style="fill:#fff"/><g style="clip-path:url(#clip-path-2)"><line x1="29.5" y1="16.5" x2="33.5" y2="16.5" style="fill:none;stroke:#607a8c;stroke-linecap:round;stroke-linejoin:round"/><line x1="28.5" y1="18.5" x2="32.5" y2="18.5" style="fill:none;stroke:#607a8c;stroke-linecap:round;stroke-linejoin:round"/><line x1="27.5" y1="20.5" x2="31.5" y2="20.5" style="fill:none;stroke:#607a8c;stroke-linecap:round;stroke-linejoin:round"/><line x1="26.5" y1="22.5" x2="30.5" y2="22.5" style="fill:none;stroke:#607a8c;stroke-linecap:round;stroke-linejoin:round"/></g><polygon points="7.5 34 4.5 35.5 7.5 37 7.5 34" style="fill:#607a8c"/><polyline points="10.5 32.5 4.5 35.5 10.5 38.5 12 37 10.5 35.5 12 34 10.5 32.5" style="fill:none;stroke:#607a8c;stroke-linecap:round;stroke-linejoin:round"/><line x1="36" y1="35.5" x2="11" y2="35.5" style="fill:none;stroke:#607a8c;stroke-miterlimit:10"/><rect x="36.5" y="32.5" width="2" height="6" style="fill:none;stroke:#607a8c;stroke-linecap:round;stroke-linejoin:round"/><polygon points="10.5 32.5 12 34 10.5 35.5 12 37 10.5 38.5 43.5 38.5 43.5 32.5 10.5 32.5" style="fill:none;stroke:#607a8c;stroke-linecap:round;stroke-linejoin:round"/></svg>
