<svg id="Layer_1" data-name="Layer 1" xmlns="http://www.w3.org/2000/svg" width="48" height="48" viewBox="0 0 48 48"><title>app_icons</title><path d="M17.54,36.75a3.54,3.54,0,0,1-3.38-2.5h-.59a2.08,2.08,0,0,1-2.07-2.07V28a2.71,2.71,0,0,1,2.5-2.7v-8A3.55,3.55,0,0,1,16.26,14a3.55,3.55,0,0,1,3.44-2.75H28.3A3.55,3.55,0,0,1,31.74,14,3.55,3.55,0,0,1,34,17.29v8A2.71,2.71,0,0,1,36.5,28v4.22a2.08,2.08,0,0,1-2.07,2.07h-.59a3.54,3.54,0,0,1-3.38,2.5Z" style="fill:#fff"/><path d="M28.3,11.75a3,3,0,0,1,3,2.63,3,3,0,0,1,2.2,2.91v8.46h.29A2.21,2.21,0,0,1,36,28v4.22a1.57,1.57,0,0,1-1.57,1.57h-1a3,3,0,0,1-3,2.5H17.54a3,3,0,0,1-3-2.5h-1A1.57,1.57,0,0,1,12,32.18V28a2.21,2.21,0,0,1,2.21-2.21h.29V17.29a3,3,0,0,1,2.2-2.91,3,3,0,0,1,3-2.63H28.3m0-1H19.7a4.05,4.05,0,0,0-3.86,2.89,4.06,4.06,0,0,0-2.34,3.65v7.53A3.21,3.21,0,0,0,11,28v4.22a2.58,2.58,0,0,0,2.57,2.57h.24a4,4,0,0,0,3.73,2.5H30.46a4,4,0,0,0,3.73-2.5h.24A2.58,2.58,0,0,0,37,32.18V28a3.21,3.21,0,0,0-2.5-3.13V17.29a4.06,4.06,0,0,0-2.34-3.65,4.05,4.05,0,0,0-3.86-2.89Z" style="fill:#607a8c"/><path d="M34.57,25.75H36a0,0,0,0,1,0,0v8a0,0,0,0,1,0,0h-.79A2.21,2.21,0,0,1,33,31.54V27.32A1.57,1.57,0,0,1,34.57,25.75Z" transform="translate(69 59.5) rotate(-180)" style="fill:currentColor;stroke:#607a8c;stroke-linecap:round;stroke-linejoin:round"/><path d="M14.21,25.75H15a0,0,0,0,1,0,0v8a0,0,0,0,1,0,0H13.57A1.57,1.57,0,0,1,12,32.18V28A2.21,2.21,0,0,1,14.21,25.75Z" style="fill:currentColor;stroke:#607a8c;stroke-linecap:round;stroke-linejoin:round"/><rect x="14.5" y="14.25" width="19" height="22" rx="3.04" ry="3.04" style="fill:#fff;stroke:#607a8c;stroke-miterlimit:10"/><rect x="16.66" y="13.75" width="14.68" height="11" rx="3.04" ry="3.04" style="fill:currentColor"/><rect x="16.66" y="11.75" width="14.68" height="11" rx="3.04" ry="3.04" style="fill:#fff;stroke:#607a8c;stroke-miterlimit:10"/><path d="M18,32.11a28.51,28.51,0,0,0,12,0V28.75H18Z" style="fill:currentColor"/><rect x="18" y="27.75" width="12" height="6" style="fill:none;stroke:#607a8c;stroke-linecap:round;stroke-linejoin:round"/><path d="M17,29.88a27.1,27.1,0,0,0,7,.87,27.1,27.1,0,0,0,7-.87V26.75H17Z" style="fill:#fff;stroke:#607a8c;stroke-linecap:round;stroke-linejoin:round"/><rect x="20" y="11.75" width="2" height="15" style="fill:#fff;stroke:#607a8c;stroke-linecap:round;stroke-linejoin:round"/><rect x="26" y="11.75" width="2" height="15" style="fill:#fff;stroke:#607a8c;stroke-linecap:round;stroke-linejoin:round"/><rect x="19" y="25.75" width="4" height="2" style="fill:#fff;stroke:#607a8c;stroke-linecap:round;stroke-linejoin:round"/><rect x="19" y="15.75" width="4" height="2" style="fill:#fff;stroke:#607a8c;stroke-linecap:round;stroke-linejoin:round"/><rect x="25" y="15.75" width="4" height="2" style="fill:#fff;stroke:#607a8c;stroke-linecap:round;stroke-linejoin:round"/><rect x="25" y="25.75" width="4" height="2" style="fill:#fff;stroke:#607a8c;stroke-linecap:round;stroke-linejoin:round"/><line x1="14" y1="40" x2="35" y2="40" style="fill:#fff;stroke:#607a8c;stroke-linecap:round;stroke-linejoin:round;stroke-width:1.5px"/></svg>
