<svg id="Layer_1" data-name="Layer 1" xmlns="http://www.w3.org/2000/svg" width="48" height="48" viewBox="0 0 48 48"><title>app_icons</title><path d="M6.4,39a1.9,1.9,0,0,1-1.9-1.9V34.5A.5.5,0,0,1,5,34H7V11.5a.5.5,0,0,1,.5-.5h33a.5.5,0,0,1,.5.5V34h2a.5.5,0,0,1,.5.5v2.6A1.9,1.9,0,0,1,41.6,39Z" style="fill:#fff"/><path d="M40.5,11.5v23H43v2.61a1.39,1.39,0,0,1-1.39,1.39H6.39A1.39,1.39,0,0,1,5,37.11V34.5H7.5v-23h33m0-1H7.5a1,1,0,0,0-1,1v22H5a1,1,0,0,0-1,1v2.61A2.4,2.4,0,0,0,6.39,39.5H41.61A2.4,2.4,0,0,0,44,37.11V34.5a1,1,0,0,0-1-1H41.5v-22a1,1,0,0,0-1-1Z" style="fill:#607a8c"/><path d="M38.39,34.5V15.06A1.06,1.06,0,0,0,37.33,14H10.67a1.06,1.06,0,0,0-1.06,1.06V34.5Z" style="fill:currentColor"/><path d="M5,34.5H43a0,0,0,0,1,0,0v2.61a1.39,1.39,0,0,1-1.39,1.39H6.39A1.39,1.39,0,0,1,5,37.11V34.5A0,0,0,0,1,5,34.5Z" style="fill:none;stroke:#607a8c;stroke-linecap:round;stroke-linejoin:round"/><rect x="7.5" y="11.5" width="33" height="23" style="fill:none;stroke:#607a8c;stroke-linecap:round;stroke-linejoin:round"/><rect x="11.5" y="31.5" width="9" height="3" style="fill:#fff;stroke:#607a8c;stroke-linecap:round;stroke-linejoin:round"/><rect x="30.5" y="33" width="5" height="1" rx="0.5" ry="0.5" style="fill:#fff"/><line x1="15" y1="18.5" x2="15" y2="22.5" style="fill:none;stroke:#fff;stroke-linecap:round;stroke-linejoin:round"/><line x1="19" y1="19.5" x2="19" y2="22.5" style="fill:none;stroke:#fff;stroke-linecap:round;stroke-linejoin:round"/><line x1="20.5" y1="21" x2="17.5" y2="21" style="fill:none;stroke:#fff;stroke-linecap:round;stroke-linejoin:round"/><line x1="14" y1="19.5" x2="15" y2="18.5" style="fill:none;stroke:#fff;stroke-linecap:round;stroke-linejoin:round"/><line x1="23" y1="18.5" x2="23" y2="22.5" style="fill:none;stroke:#fff;stroke-linecap:round;stroke-linejoin:round"/><line x1="22" y1="19.5" x2="23" y2="18.5" style="fill:none;stroke:#fff;stroke-linecap:round;stroke-linejoin:round"/></svg>
