<svg id="Layer_1" data-name="Layer 1" xmlns="http://www.w3.org/2000/svg" width="32" height="32" viewBox="0 0 32 32"><path d="M25.14,22l1.57-3.78L24.64,17a8.64,8.64,0,0,0,0-2l2.07-1.23L25.15,10l-2.33.6a8.64,8.64,0,0,0-1.41-1.4L22,6.86,18.22,5.29,17,7.36a8.64,8.64,0,0,0-2,0L13.78,5.29,10,6.85l.6,2.33a8.64,8.64,0,0,0-1.4,1.41L6.86,10,5.29,13.78,7.36,15a8.64,8.64,0,0,0,0,2L5.29,18.22,6.85,22l2.33-.6a8.64,8.64,0,0,0,1.41,1.4L10,25.14l3.78,1.57L15,24.64a8.64,8.64,0,0,0,2,0l1.23,2.07L22,25.15l-.6-2.33a8.64,8.64,0,0,0,1.4-1.41Z" style="fill:none;stroke:currentColor;stroke-linecap:round;stroke-linejoin:round"/><circle cx="16" cy="16" r="2.5" style="fill:none;stroke:currentColor;stroke-miterlimit:10"/></svg>
