<svg id="Layer_1" data-name="Layer 1" xmlns="http://www.w3.org/2000/svg" width="48" height="48" viewBox="0 0 48 48"><title>setting-school</title><line x1="24" y1="4.5" x2="24" y2="10" style="fill:currentColor;stroke:currentColor;stroke-linecap:round;stroke-linejoin:round;stroke-width:1.5px"/><polyline points="24 4.5 30.5 6.5 24 7.5 24 4.5" style="fill:currentColor;stroke:currentColor;stroke-linecap:round;stroke-linejoin:round"/><path d="M11.5,41a.5.5,0,0,1-.5-.5V28H7.59a.5.5,0,0,1-.27-.92L18,20.25V15H17a.5.5,0,0,1-.27-.92l7-4.5a.5.5,0,0,1,.54,0l7,4.5A.5.5,0,0,1,31,15H30v5.25l10.68,6.83a.5.5,0,0,1-.27.92H37V40.5a.5.5,0,0,1-.5.5Z" style="fill:#fff"/><path d="M24,10l7,4.5H29.5v6l10.91,7H36.5v13h-25v-13H7.59l10.91-7v-6H17L24,10m0-1a1,1,0,0,0-.54.16l-7,4.5A1,1,0,0,0,17,15.5h.53V20L7.05,26.66a1,1,0,0,0,.54,1.84H10.5v12a1,1,0,0,0,1,1h25a1,1,0,0,0,1-1v-12h2.91a1,1,0,0,0,.54-1.84L30.5,20V15.5H31a1,1,0,0,0,.54-1.84l-7-4.5A1,1,0,0,0,24,9Z" style="fill:#607a8c"/><polygon points="24 18.5 18.5 22.5 18.5 14.5 29.5 14.5 29.5 22.5 24 18.5" style="fill:#fff;stroke:#607a8c;stroke-linecap:round;stroke-linejoin:round"/><polygon points="37 28 24 20 11 28.32 11 28.5 11.5 28.5 11.5 30.5 24 22.5 36.5 30.5 36.5 28.5 36.5 28.5 37 28" style="fill:currentColor"/><polygon points="24 19.5 36.5 27.5 36.5 40.5 11.5 40.5 11.5 27.5 24 19.5" style="fill:none"/><polygon points="24 19.5 36.5 27.5 36.5 40.5 11.5 40.5 11.5 27.5 24 19.5" style="fill:none;stroke:#607a8c;stroke-linecap:round;stroke-linejoin:round"/><circle cx="24" cy="24" r="1.5" style="fill:#fff;stroke:#607a8c;stroke-linecap:round;stroke-linejoin:round"/><rect x="18.5" y="38.5" width="11" height="2" style="fill:#fff;stroke:#607a8c;stroke-linecap:round;stroke-linejoin:round"/><rect x="20.5" y="29.5" width="7" height="9" style="fill:#fff;stroke:#607a8c;stroke-linecap:round;stroke-linejoin:round"/><polygon points="31.03 14.5 24 10 16.97 14.5 31.03 14.5" style="fill:#fff;stroke:#607a8c;stroke-linecap:round;stroke-linejoin:round"/><line x1="18.5" y1="16.5" x2="21.5" y2="16.5" style="fill:#fff;stroke:#607a8c;stroke-linecap:round;stroke-linejoin:round"/><line x1="26.5" y1="16.5" x2="29.5" y2="16.5" style="fill:#fff;stroke:#607a8c;stroke-linecap:round;stroke-linejoin:round"/><rect x="14.5" y="31.5" width="3" height="5" style="fill:currentColor;stroke:currentColor;stroke-linecap:round;stroke-linejoin:round"/><rect x="30.5" y="31.5" width="3" height="5" style="fill:currentColor;stroke:currentColor;stroke-linecap:round;stroke-linejoin:round"/><polygon points="24 17 7.59 27.5 11.5 27.5 24 19.5 36.5 27.5 40.41 27.5 24 17" style="fill:#fff;stroke:#607a8c;stroke-linecap:round;stroke-linejoin:round"/></svg>
