<svg id="Layer_1" data-name="Layer 1" xmlns="http://www.w3.org/2000/svg" width="48" height="48" viewBox="0 0 48 48"><title>app_icons</title><rect x="4.71" y="20.71" width="2" height="4" rx="1" ry="1" transform="translate(-14.38 10.69) rotate(-45)" style="fill:currentColor"/><path d="M33.82,35.5A4,4,0,0,1,30,32.59H14.39a4,4,0,0,1-7.66,0H6.49c-1.38,0-4-.59-4-2.83V27.09a3.93,3.93,0,0,1,3.26-3.89,10.33,10.33,0,0,0,2.83-.85,12.5,12.5,0,0,0,1.9-1.3,13.3,13.3,0,0,1,8.79-3.4c5.12,0,7.59,1.73,10.45,3.73.47.33,1,.67,1.46,1A15.06,15.06,0,0,0,37,24.22c2,.35,3.74.66,4.78,1.7,2.17,2.17.18,6.22.09,6.39a.5.5,0,0,1-.45.28H37.65A4,4,0,0,1,33.82,35.5Z" style="fill:#fff"/><path d="M19.28,18.14c5.82,0,8.14,2.33,11.63,4.65s8.57,1.59,10.47,3.49,0,5.82,0,5.82H37.25a3.48,3.48,0,0,1-6.86,0H14a3.48,3.48,0,0,1-6.86,0H6.49S3,32.09,3,29.77V27.09a3.44,3.44,0,0,1,2.85-3.4,11,11,0,0,0,3-.9c2.33-1.16,4.65-4.65,10.47-4.65m0-1a13.73,13.73,0,0,0-9.1,3.51,12.19,12.19,0,0,1-1.81,1.25,9.83,9.83,0,0,1-2.69.81A4.43,4.43,0,0,0,2,27.09v2.68c0,2.56,2.79,3.29,4.37,3.32a4.48,4.48,0,0,0,8.39,0H29.63a4.48,4.48,0,0,0,8.39,0h3.37a1,1,0,0,0,.89-.55c.09-.18,2.23-4.55-.19-7-1.15-1.15-3-1.49-5-1.84A14.46,14.46,0,0,1,31.47,22c-.5-.33-1-.67-1.45-1-2.81-2-5.45-3.82-10.74-3.82Z" style="fill:#607a8c"/><circle cx="10.56" cy="31.51" r="3.99" style="fill:#fff"/><path d="M10.56,28a3.49,3.49,0,1,1-3.49,3.49A3.49,3.49,0,0,1,10.56,28m0-1A4.49,4.49,0,1,0,15,31.51,4.49,4.49,0,0,0,10.56,27Z" style="fill:#607a8c"/><circle cx="33.82" cy="31.51" r="3.99" style="fill:currentColor"/><path d="M33.82,28a3.49,3.49,0,1,1-3.49,3.49A3.49,3.49,0,0,1,33.82,28m0-1a4.49,4.49,0,1,0,4.49,4.49A4.49,4.49,0,0,0,33.82,27Z" style="fill:#607a8c"/><path d="M21,32.09H6.49S3,32.09,3,29.77V27.09a3.44,3.44,0,0,1,2.85-3.4,11,11,0,0,0,3-.9c2.33-1.16,4.65-4.65,10.47-4.65s8.14,2.33,11.63,4.65,8.57,1.59,10.47,3.49,0,5.82,0,5.82H21Z" style="fill:none;stroke:#607a8c;stroke-linecap:round;stroke-linejoin:round"/><circle cx="33.82" cy="31.51" r="3.49" style="fill:currentColor;stroke:#607a8c;stroke-linecap:round;stroke-linejoin:round"/><circle cx="10.56" cy="31.51" r="3.49" style="fill:#fff;stroke:#607a8c;stroke-linecap:round;stroke-linejoin:round"/><path d="M19,24.53V19.89a14.32,14.32,0,0,1,8.39,2.66,1.08,1.08,0,0,1,.47,1.11h0a1.08,1.08,0,0,1-1.06.88Z" style="fill:#fff;stroke:currentColor;stroke-linecap:round;stroke-linejoin:round"/><path d="M12.27,24h0a1.08,1.08,0,0,1,.28-1.46,14.47,14.47,0,0,1,3.83-2v4h-3.2A1.08,1.08,0,0,1,12.27,24Z" style="fill:#fff;stroke:currentColor;stroke-linecap:round;stroke-linejoin:round"/><line x1="25.68" y1="32.09" x2="21.03" y2="32.09" style="fill:none;stroke:#607a8c;stroke-linecap:round;stroke-linejoin:round"/><circle cx="10.56" cy="31.51" r="3.49" style="fill:currentColor;stroke:#607a8c;stroke-linecap:round;stroke-linejoin:round"/><polyline points="21 37 23 35 25 37" style="fill:none;stroke:currentColor;stroke-linecap:round;stroke-linejoin:round;stroke-width:1.5px"/><line x1="23" y1="40" x2="23" y2="35" style="fill:#fff;stroke:currentColor;stroke-linecap:round;stroke-linejoin:round;stroke-width:1.5px"/><rect x="44" y="26" width="2" height="4" rx="1" ry="1" style="fill:currentColor"/></svg>
