<svg id="Layer_1" data-name="Layer 1" xmlns="http://www.w3.org/2000/svg" width="48" height="48" viewBox="0 0 48 48"><title>app_icons</title><path d="M27.73,42.5a.5.5,0,0,1-.43-.25l-1.18-2A2.4,2.4,0,0,0,24,39.11h0a2.42,2.42,0,0,0-2.15,1.15l-1.18,2a.5.5,0,0,1-.62.21l-6.35-2.63a.5.5,0,0,1-.29-.59L14,37a2.4,2.4,0,0,0-.68-2.31,2.48,2.48,0,0,0-1.76-.77A2.28,2.28,0,0,0,11,34l-2.24.57-.12,0a.5.5,0,0,1-.46-.31L5.54,27.92a.5.5,0,0,1,.21-.62l2-1.18a2.53,2.53,0,0,0,0-4.25l-2-1.18a.5.5,0,0,1-.21-.62l2.63-6.35a.5.5,0,0,1,.46-.31l.12,0L11,14a2.28,2.28,0,0,0,.57.07,2.49,2.49,0,0,0,1.74-.75A2.42,2.42,0,0,0,14,11l-.57-2.24a.5.5,0,0,1,.29-.59l6.36-2.63a.5.5,0,0,1,.62.21l1.18,2A2.4,2.4,0,0,0,24,8.89h0a2.42,2.42,0,0,0,2.15-1.15l1.18-2a.5.5,0,0,1,.62-.21l6.35,2.63a.5.5,0,0,1,.29.59L34,11a2.4,2.4,0,0,0,.68,2.31,2.48,2.48,0,0,0,1.76.77A2.28,2.28,0,0,0,37,14l2.24-.57.12,0a.5.5,0,0,1,.46.31l2.63,6.36a.5.5,0,0,1-.21.62l-2,1.18a2.53,2.53,0,0,0,0,4.25l2,1.18a.5.5,0,0,1,.21.62l-2.63,6.35a.5.5,0,0,1-.46.31l-.12,0L37,34a2.28,2.28,0,0,0-.57-.07,2.49,2.49,0,0,0-1.74.75A2.42,2.42,0,0,0,34,37l.57,2.24a.5.5,0,0,1-.29.59l-6.36,2.63A.5.5,0,0,1,27.73,42.5Z" style="fill:#fff"/><path d="M20.27,6l1.18,2A2.91,2.91,0,0,0,24,9.39h0A2.91,2.91,0,0,0,26.56,8l1.18-2,6.35,2.63-.57,2.24a2.91,2.91,0,0,0,.81,2.79l0,0a3,3,0,0,0,2.09.89,2.77,2.77,0,0,0,.69-.09l2.24-.57L42,20.27l-2,1.18A2.91,2.91,0,0,0,38.61,24v0A2.91,2.91,0,0,0,40,26.56l2,1.18-2.63,6.35-2.24-.57a2.77,2.77,0,0,0-.69-.09,3,3,0,0,0-2.1.9l0,0a2.91,2.91,0,0,0-.8,2.78l.57,2.24L27.73,42l-1.18-2A2.91,2.91,0,0,0,24,38.61h0A2.91,2.91,0,0,0,21.44,40l-1.18,2-6.35-2.63.57-2.24a2.91,2.91,0,0,0-.81-2.79l0,0a3,3,0,0,0-2.09-.89,2.77,2.77,0,0,0-.69.09l-2.24.57L6,27.73l2-1.18A2.91,2.91,0,0,0,9.39,24v0A2.91,2.91,0,0,0,8,21.44L6,20.26l2.63-6.35,2.24.57a2.77,2.77,0,0,0,.69.09,3,3,0,0,0,2.1-.9l0,0a2.91,2.91,0,0,0,.8-2.78l-.57-2.24L20.27,6m0-1a1,1,0,0,0-.38.08L13.53,7.71a1,1,0,0,0-.59,1.17l.57,2.24A1.91,1.91,0,0,1,13,12.94a2,2,0,0,1-1.41.63,1.78,1.78,0,0,1-.44-.06l-2.24-.57a1,1,0,0,0-1.17.59L5.08,19.88a1,1,0,0,0,.41,1.24l2,1.18A1.91,1.91,0,0,1,8.39,24a1.93,1.93,0,0,1-.91,1.71l-2,1.18a1,1,0,0,0-.41,1.24l2.63,6.36a1,1,0,0,0,1.17.59l2.24-.57a1.77,1.77,0,0,1,.44-.06,2,2,0,0,1,1.39.6,1.92,1.92,0,0,1,.57,1.85l-.57,2.24a1,1,0,0,0,.59,1.17l6.35,2.63a1,1,0,0,0,1.24-.41l1.18-2A1.91,1.91,0,0,1,24,39.61a1.93,1.93,0,0,1,1.72.91l1.18,2a1,1,0,0,0,1.24.41l6.36-2.63a1,1,0,0,0,.59-1.17l-.57-2.24A1.91,1.91,0,0,1,35,35.06a2,2,0,0,1,1.41-.63,1.78,1.78,0,0,1,.44.06l2.24.57a1,1,0,0,0,1.17-.59l2.63-6.35a1,1,0,0,0-.41-1.24l-2-1.18A1.91,1.91,0,0,1,39.61,24a1.93,1.93,0,0,1,.91-1.71l2-1.18a1,1,0,0,0,.41-1.24l-2.63-6.36a1,1,0,0,0-1.17-.59l-2.24.57a1.78,1.78,0,0,1-.44.06,2,2,0,0,1-1.39-.6,1.92,1.92,0,0,1-.57-1.85l.57-2.24a1,1,0,0,0-.59-1.17L28.12,5.08a1,1,0,0,0-1.24.41l-1.18,2A1.91,1.91,0,0,1,24,8.39a1.93,1.93,0,0,1-1.72-.91l-1.18-2A1,1,0,0,0,20.27,5Z" style="fill:#607a8c"/><path d="M39.36,34.09,42,27.74l-2-1.18A2.91,2.91,0,0,1,38.61,24v0A2.91,2.91,0,0,1,40,21.45l2-1.18-2.63-6.36-2.24.57a2.91,2.91,0,0,1-2.78-.8l0,0a2.91,2.91,0,0,1-.81-2.79l.57-2.24L27.74,6,26.56,8A2.91,2.91,0,0,1,24,9.39h0A2.91,2.91,0,0,1,21.45,8L20.27,6,13.92,8.63l.57,2.24a2.91,2.91,0,0,1-.8,2.78l0,0a2.91,2.91,0,0,1-2.79.81l-2.24-.57L6,20.26l2,1.18A2.91,2.91,0,0,1,9.39,24v0A2.91,2.91,0,0,1,8,26.55L6,27.73l2.63,6.36,2.24-.57a2.91,2.91,0,0,1,2.78.8l0,0a2.91,2.91,0,0,1,.81,2.79l-.57,2.24L20.26,42l1.18-2A2.91,2.91,0,0,1,24,38.61h0A2.91,2.91,0,0,1,26.55,40l1.18,2,6.36-2.63-.57-2.24a2.91,2.91,0,0,1,.8-2.78l0,0a2.91,2.91,0,0,1,2.79-.81Z" style="fill:none;stroke:#607a8c;stroke-linecap:round;stroke-linejoin:round"/><circle cx="24" cy="24" r="4.2" style="fill:none;stroke:#607a8c;stroke-miterlimit:10"/><circle cx="24" cy="24" r="11.25" style="fill:none;stroke:currentColor;stroke-miterlimit:10"/><path d="M24,19.8A4.2,4.2,0,1,1,19.8,24,4.2,4.2,0,0,1,24,19.8m0-1A5.2,5.2,0,1,0,29.2,24,5.21,5.21,0,0,0,24,18.8Z" style="fill:#607a8c"/><circle cx="24" cy="24" r="10.5" style="fill:none;stroke:currentColor;stroke-miterlimit:10"/><circle cx="24" cy="24" r="8.5" style="fill:none;stroke:currentColor;stroke-miterlimit:10"/></svg>
