<svg id="Layer_1" data-name="Layer 1" xmlns="http://www.w3.org/2000/svg" width="48" height="48" viewBox="0 0 48 48"><title>app_icons</title><path d="M23.26,39.5a.5.5,0,0,1-.49-.61c1.34-6.07,3.81-10.82,6.83-13.21a8,8,0,1,1,8.79,0c3,2.39,5.49,7.14,6.83,13.21a.5.5,0,0,1-.49.61Z" style="fill:currentColor"/><path d="M34,11.5a7.5,7.5,0,0,1,3.49,14.14c3.25,2.16,5.89,7.21,7.25,13.36H23.26c1.36-6.16,4-11.2,7.25-13.36A7.5,7.5,0,0,1,34,11.5m0-1a8.5,8.5,0,0,0-5.21,15.21c-2.88,2.57-5.21,7.23-6.5,13.07a1,1,0,0,0,1,1.22H44.74a1,1,0,0,0,1-1.22c-1.29-5.84-3.62-10.5-6.5-13.07A8.5,8.5,0,0,0,34,10.5Z" style="fill:#607a8c"/><rect x="33" y="26" width="2" height="13" style="fill:#fff"/><circle cx="34" cy="19" r="7.5" style="fill:#fff;stroke:#607a8c;stroke-linecap:round;stroke-linejoin:round"/><circle cx="32" cy="18" r="1" style="fill:currentColor"/><circle cx="36" cy="18" r="1" style="fill:currentColor"/><path d="M36,21.46a4,4,0,0,1-4,0" style="fill:none;stroke:currentColor;stroke-linecap:round;stroke-linejoin:round"/><path d="M37.49,25.64a7.48,7.48,0,0,1-7,0C27.27,27.8,24.62,32.84,23.26,39H44.74C43.38,32.84,40.73,27.8,37.49,25.64Z" style="fill:none;stroke:#607a8c;stroke-linecap:round;stroke-linejoin:round"/><path d="M41.5,19a7.5,7.5,0,0,0-15,0" style="fill:none;stroke:#607a8c;stroke-linecap:round;stroke-linejoin:round"/><path d="M3.61,39.5a.5.5,0,0,1-.5-.56A12,12,0,0,1,9.2,30a8,8,0,1,1,11.6,0,12,12,0,0,1,6.09,8.93.5.5,0,0,1-.5.56Z" style="fill:#fff"/><path d="M15,17a7.49,7.49,0,0,1,4.95,13.12h0A11.51,11.51,0,0,1,26.39,39H3.61a11.51,11.51,0,0,1,6.44-8.88h0A7.49,7.49,0,0,1,15,17m0-1A8.49,8.49,0,0,0,8.42,29.88a12.44,12.44,0,0,0-5.81,9,1,1,0,0,0,1,1.13H26.39a1,1,0,0,0,1-1.13,12.44,12.44,0,0,0-5.81-9A8.49,8.49,0,0,0,15,16Z" style="fill:#607a8c"/><path d="M21,36h0a2,2,0,0,1,2,2v1a0,0,0,0,1,0,0H19a0,0,0,0,1,0,0V38A2,2,0,0,1,21,36Z" style="fill:currentColor"/><rect x="14" y="32" width="2" height="7" style="fill:currentColor"/><circle cx="15" cy="24.5" r="7.5" style="fill:none;stroke:#607a8c;stroke-linecap:round;stroke-linejoin:round"/><circle cx="13" cy="24" r="1" style="fill:currentColor"/><circle cx="17" cy="24" r="1" style="fill:currentColor"/><path d="M19.95,30.12a7.47,7.47,0,0,1-9.9,0A11.51,11.51,0,0,0,3.61,39H26.39A11.51,11.51,0,0,0,19.95,30.12Z" style="fill:none;stroke:#607a8c;stroke-linecap:round;stroke-linejoin:round"/><path d="M17,27.46a4,4,0,0,1-4,0" style="fill:none;stroke:currentColor;stroke-linecap:round;stroke-linejoin:round"/><rect x="37" y="32" width="4" height="4" rx="2" ry="2" style="fill:#fff"/></svg>
