<svg id="Layer_1" data-name="Layer 1" xmlns="http://www.w3.org/2000/svg" width="48" height="48" viewBox="0 0 48 48"><title>app_icons</title><path d="M9,37a.5.5,0,0,1-.5-.5v-24A.5.5,0,0,1,9,12H25.11a7,7,0,0,1,9.78,0H40a.5.5,0,0,1,.5.5v24a.5.5,0,0,1-.5.5Z" style="fill:#fff"/><path d="M30,10.5a6.48,6.48,0,0,1,4.68,2H40v24H9v-24H25.32a6.48,6.48,0,0,1,4.68-2m0-1a7.42,7.42,0,0,0-5.09,2H9a1,1,0,0,0-1,1v24a1,1,0,0,0,1,1H40a1,1,0,0,0,1-1v-24a1,1,0,0,0-1-1H35.09A7.42,7.42,0,0,0,30,9.5Z" style="fill:#607a8c"/><rect x="9" y="12.5" width="31" height="2" style="fill:#fff;stroke:#607a8c;stroke-linecap:round;stroke-linejoin:round"/><rect x="9" y="14.5" width="31" height="11" style="fill:#fff;stroke:#607a8c;stroke-linecap:round;stroke-linejoin:round"/><rect x="9" y="25.5" width="31" height="11" style="fill:#fff;stroke:#607a8c;stroke-linecap:round;stroke-linejoin:round"/><path d="M22.8,25.5H37.2a8.48,8.48,0,0,0-14.4,0Z" style="fill:currentColor;stroke:#607a8c;stroke-linecap:round;stroke-linejoin:round"/><circle cx="30" cy="17" r="6.5" style="fill:#fff;stroke:#607a8c;stroke-linecap:round;stroke-linejoin:round"/><circle cx="28" cy="17" r="1" style="fill:currentColor"/><circle cx="32" cy="17" r="1" style="fill:currentColor"/><path d="M32,19.46a4,4,0,0,1-4,0" style="fill:none;stroke:currentColor;stroke-linecap:round;stroke-linejoin:round"/><path d="M10.8,36.5H25.2a8.48,8.48,0,0,0-14.4,0Z" style="fill:currentColor;stroke:#607a8c;stroke-linecap:round;stroke-linejoin:round"/><circle cx="18" cy="28" r="6.5" style="fill:#fff;stroke:#607a8c;stroke-linecap:round;stroke-linejoin:round"/><circle cx="16" cy="28" r="1" style="fill:currentColor"/><circle cx="20" cy="28" r="1" style="fill:currentColor"/><path d="M20,30.46a4,4,0,0,1-4,0" style="fill:none;stroke:currentColor;stroke-linecap:round;stroke-linejoin:round"/><line x1="9.5" y1="16.5" x2="13.5" y2="16.5" style="fill:#fff;stroke:#607a8c;stroke-linecap:round;stroke-linejoin:round"/><line x1="9.5" y1="18.5" x2="11.5" y2="18.5" style="fill:#fff;stroke:#607a8c;stroke-linecap:round;stroke-linejoin:round"/><line x1="39.5" y1="27.5" x2="35.5" y2="27.5" style="fill:#fff;stroke:#607a8c;stroke-linecap:round;stroke-linejoin:round"/><line x1="39.5" y1="29.5" x2="37.5" y2="29.5" style="fill:#fff;stroke:#607a8c;stroke-linecap:round;stroke-linejoin:round"/></svg>
