<svg id="Layer_1" data-name="Layer 1" xmlns="http://www.w3.org/2000/svg" width="48" height="48" viewBox="0 0 48 48"><title>app_icons</title><path d="M40.5,39l-7-7Z" style="fill:none;stroke:currentColor;stroke-linecap:round;stroke-linejoin:round;stroke-width:1.5px"/><path d="M7.5,39l7-7Z" style="fill:none;stroke:currentColor;stroke-linecap:round;stroke-linejoin:round;stroke-width:1.5px"/><path d="M32.5,36a3,3,0,0,1-3-3V32h-11v1a3,3,0,0,1-6,0V32H11a.5.5,0,0,1-.5-.5v-10A.5.5,0,0,1,11,21h1.5V20H10a.5.5,0,0,1-.5-.5v-5A.5.5,0,0,1,10,14h2.5v-.43a.56.56,0,0,1,0-.09A5.59,5.59,0,0,1,18.07,8H29.93a5.59,5.59,0,0,1,5.56,5.41.48.48,0,0,1,0,.09V14H38a.5.5,0,0,1,.5.5v5a.5.5,0,0,1-.5.5H35.5v1H37a.5.5,0,0,1,.5.5v10a.5.5,0,0,1-.5.5H35.5v1A3,3,0,0,1,32.5,36Z" style="fill:#fff"/><path d="M29.93,8.5a5.06,5.06,0,0,1,5.06,5h0v1h3v5H35v2h2v10H35V33a2.5,2.5,0,0,1-5,0V31.5H18V33a2.5,2.5,0,0,1-5,0V31.5H11v-10h2v-2H10v-5h3v-1h0a5.06,5.06,0,0,1,5.06-5H29.93m0-1H18.07A6.09,6.09,0,0,0,12,13.36a1,1,0,0,0,0,.14H10a1,1,0,0,0-1,1v5a1,1,0,0,0,1,1h1a1,1,0,0,0-1,1v10a1,1,0,0,0,1,1h1V33a3.5,3.5,0,0,0,7,0v-.5H29V33a3.5,3.5,0,0,0,7,0v-.5h1a1,1,0,0,0,1-1v-10a1,1,0,0,0-1-1h1a1,1,0,0,0,1-1v-5a1,1,0,0,0-1-1H36a1,1,0,0,0,0-.14A6.09,6.09,0,0,0,29.93,7.5Z" style="fill:#607a8c"/><path d="M18.07,8.5H29.93A5.07,5.07,0,0,1,35,13.57V21.5a0,0,0,0,1,0,0H13a0,0,0,0,1,0,0V13.57A5.07,5.07,0,0,1,18.07,8.5Z" style="fill:none;stroke:#607a8c;stroke-linecap:round;stroke-linejoin:round"/><rect x="11" y="21.5" width="26" height="10" style="fill:none;stroke:#607a8c;stroke-linecap:round;stroke-linejoin:round"/><circle cx="15.5" cy="27" r="2" style="fill:currentColor"/><circle cx="32.5" cy="27" r="2" style="fill:currentColor"/><line x1="19" y1="25.5" x2="29" y2="25.5" style="fill:none;stroke:#607a8c;stroke-linecap:round;stroke-linejoin:bevel"/><line x1="20" y1="27.5" x2="28" y2="27.5" style="fill:none;stroke:#607a8c;stroke-linecap:round;stroke-linejoin:bevel"/><rect x="13" y="13.5" width="22" height="8" style="fill:none;stroke:#607a8c;stroke-linecap:round;stroke-linejoin:round"/><path d="M13,31.5h5a0,0,0,0,1,0,0V33a2.5,2.5,0,0,1-2.5,2.5h0A2.5,2.5,0,0,1,13,33V31.5A0,0,0,0,1,13,31.5Z" style="fill:none;stroke:#607a8c;stroke-linecap:round;stroke-linejoin:round"/><path d="M30,31.5h5a0,0,0,0,1,0,0V33a2.5,2.5,0,0,1-2.5,2.5h0A2.5,2.5,0,0,1,30,33V31.5A0,0,0,0,1,30,31.5Z" style="fill:none;stroke:#607a8c;stroke-linecap:round;stroke-linejoin:round"/><line x1="24" y1="21.5" x2="24" y2="13.5" style="fill:none;stroke:#607a8c;stroke-linecap:round;stroke-linejoin:round"/><line x1="21" y1="10.5" x2="27" y2="10.5" style="fill:none;stroke:#607a8c;stroke-linecap:round;stroke-linejoin:bevel"/><rect x="35" y="14.5" width="3" height="5" style="fill:none;stroke:#607a8c;stroke-linecap:round;stroke-linejoin:round"/><rect x="10" y="14.5" width="3" height="5" style="fill:none;stroke:#607a8c;stroke-linecap:round;stroke-linejoin:round"/><line x1="15" y1="17.5" x2="17.5" y2="15" style="fill:none;stroke:currentColor;stroke-linecap:round;stroke-linejoin:round"/><line x1="17" y1="17.5" x2="17.5" y2="17" style="fill:none;stroke:currentColor;stroke-linecap:round;stroke-linejoin:round"/><line x1="26" y1="17.5" x2="28.5" y2="15" style="fill:none;stroke:currentColor;stroke-linecap:round;stroke-linejoin:round"/><line x1="28" y1="17.5" x2="28.5" y2="17" style="fill:none;stroke:currentColor;stroke-linecap:round;stroke-linejoin:round"/><path d="M24,34.5v0Z" style="fill:none;stroke:currentColor;stroke-linecap:round;stroke-linejoin:round;stroke-width:1.5px"/><path d="M24,38.5v0Z" style="fill:none;stroke:currentColor;stroke-linecap:round;stroke-linejoin:round;stroke-width:1.5px"/></svg>
