<svg id="Layer_1" data-name="Layer 1" xmlns="http://www.w3.org/2000/svg" width="32" height="32" viewBox="0 0 32 32"><circle cx="17.45" cy="7.66" r="2.5" style="fill:none;stroke:#8ea6ba;stroke-miterlimit:10"/><path d="M16.07,9.75a1.56,1.56,0,0,0-1.44.42l-3.36,2.76a1.13,1.13,0,0,0-.42.63L10,17.16" style="fill:none;stroke:#8ea6ba;stroke-linecap:round;stroke-linejoin:round"/><path d="M14.76,13.17,14,17.7a1.13,1.13,0,0,0,.17.85l5.19,7.78a1.13,1.13,0,0,0,1.44.38h0a1.13,1.13,0,0,0,.45-1.61L18,19.87a4,4,0,0,1-.32-3.59l.47-1.18a4,4,0,0,0-.38-3.68L17,10.16" style="fill:none;stroke:#8ea6ba;stroke-linecap:round;stroke-linejoin:round"/><path d="M16,21.16l-.86,1.72a3.52,3.52,0,0,1-.33.54L12.86,26a1.31,1.31,0,0,1-2,.14h0a1.31,1.31,0,0,1,0-1.86l2-2.27" style="fill:none;stroke:#8ea6ba;stroke-linecap:round;stroke-linejoin:round"/><path d="M18.46,13.16l2.93,1.46a1.2,1.2,0,0,1,.54,1.61h0a1.2,1.2,0,0,1-1.45.6l-.86-.44" style="fill:none;stroke:#8ea6ba;stroke-linecap:round;stroke-linejoin:round"/></svg>